<?xml version="1.0" encoding="utf-8"?>
<!-- Generator: Adobe Illustrator 25.4.1, SVG Export Plug-In . SVG Version: 6.00 Build 0)  -->
<svg version="1.1" id="Layer_1" xmlns="http://www.w3.org/2000/svg" xmlns:xlink="http://www.w3.org/1999/xlink" x="0px" y="0px"
	 viewBox="0 0 500 597.8" style="enable-background:new 0 0 500 597.8;" xml:space="preserve">
<style type="text/css">
	.st0{fill:#FFFFFF;}
</style>
<g id="on_black">
	<path class="st0" d="M158.6,473.3c-40.6-0.1-73.5-33-73.6-73.6V334h80.4v47c0,10.1,8.2,18.3,18.3,18.3l0,0h127.4
		c10.1,0,18.3-8.2,18.3-18.3l0,0v-57.6c0-19.2-8.9-24.6-27.6-28.9l-124.2-26.7c-31.4-6.8-52.8-15.9-67.1-28.8
		c-16.1-14.4-23.9-34.4-23.9-61.1V92.3c0.1-40.6,33-73.5,73.6-73.6h171.3c40.6,0.1,73.5,33,73.6,73.6v60.2h-80.4v-41.4
		c0-10.1-8.2-18.3-18.3-18.3l0,0H188.5c-10.1,0-18.3,8.2-18.3,18.3l0,0v52.1c0,19.2,8.9,24.6,27.6,28.9L322,218.9
		c31.4,6.8,52.8,15.9,67.1,28.8c16.1,14.4,23.9,34.4,23.9,61.1v91c-0.1,40.6-33,73.5-73.6,73.6H158.6z"/>
</g>
<rect x="88" y="503" class="st0" width="325" height="66"/>
</svg>
